<svg xmlns="http://www.w3.org/2000/svg" width="1344" height="768" viewBox="0 0 1344 768">
  <defs>
    <linearGradient id="bg" x1="0%" y1="0%" x2="100%" y2="100%">
      <stop offset="0%" style="stop-color:#1a1a2e"/>
      <stop offset="50%" style="stop-color:#16213e"/>
      <stop offset="100%" style="stop-color:#0f3460"/>
    </linearGradient>
    <linearGradient id="accent" x1="0%" y1="0%" x2="100%" y2="100%">
      <stop offset="0%" style="stop-color:#6c5ce7;stop-opacity:0.4"/>
      <stop offset="100%" style="stop-color:#a29bfe;stop-opacity:0.1"/>
    </linearGradient>
  </defs>
  <rect width="1344" height="768" fill="url(#bg)"/>
  <!-- Abstract shapes -->
  <circle cx="300" cy="400" r="200" fill="url(#accent)" opacity="0.6"/>
  <circle cx="1000" cy="300" r="280" fill="url(#accent)" opacity="0.3"/>
  <circle cx="672" cy="600" r="150" fill="#00d2a0" opacity="0.08"/>
  <!-- Grid pattern -->
  <g stroke="#ffffff" stroke-width="0.5" opacity="0.04">
    <line x1="0" y1="0" x2="1344" y2="768"/>
    <line x1="1344" y1="0" x2="0" y2="768"/>
    <line x1="672" y1="0" x2="672" y2="768"/>
    <line x1="0" y1="384" x2="1344" y2="384"/>
  </g>
  <!-- Central icon -->
  <g transform="translate(572, 284)">
    <rect x="0" y="0" width="200" height="200" rx="30" fill="#6c5ce7" opacity="0.2"/>
    <rect x="20" y="20" width="160" height="160" rx="20" fill="#6c5ce7" opacity="0.3"/>
    <path d="M60 140L100 60L140 140H60Z" fill="#a29bfe" opacity="0.8"/>
    <circle cx="100" cy="100" r="25" fill="none" stroke="#a29bfe" stroke-width="2" opacity="0.5"/>
  </g>
  <text x="672" y="540" text-anchor="middle" fill="#a29bfe" font-family="system-ui,sans-serif" font-size="18" opacity="0.6">Votre image hero — 1344×768</text>
</svg>
